<svg width="300" height="300" viewBox="0 0 300 300" fill="none" xmlns="http://www.w3.org/2000/svg">
<path d="M260.174 170C260.174 230.487 212.363 279.5 153.412 279.5C94.4601 279.5 46.6492 230.487 46.6492 170C46.6492 109.513 94.4601 60.5 153.412 60.5C212.363 60.5 260.174 109.513 260.174 170Z" fill="#9392BA" stroke="#9392BA"/>
<path d="M234.171 30C234.171 46.3044 221.286 59.5 205.418 59.5C189.549 59.5 176.664 46.3044 176.664 30C176.664 13.6956 189.549 0.5 205.418 0.5C221.286 0.5 234.171 13.6956 234.171 30Z" fill="#9392BA" stroke="#9392BA"/>
<path d="M279.676 76.6667C279.676 85.6072 272.612 92.8333 263.924 92.8333C255.237 92.8333 248.172 85.6072 248.172 76.6667C248.172 67.7261 255.237 60.5 263.924 60.5C272.612 60.5 279.676 67.7261 279.676 76.6667Z" fill="#9392BA" stroke="#9392BA"/>
<path d="M65.1514 283.333C65.1514 292.274 58.0873 299.5 49.3996 299.5C40.7119 299.5 33.6477 292.274 33.6477 283.333C33.6477 274.393 40.7119 267.167 49.3996 267.167C58.0873 267.167 65.1514 274.393 65.1514 283.333Z" fill="#9392BA" stroke="#9392BA"/>
<path d="M289.146 117.791C289.8 119.552 289.569 121.672 288.419 124.149C287.269 126.626 285.219 129.408 282.328 132.441C276.547 138.504 267.483 145.484 255.804 152.938C232.455 167.842 198.746 184.584 160.214 199.622C121.683 214.661 85.6494 225.139 58.5457 229.926C44.9897 232.321 33.6934 233.287 25.4444 232.7C21.3185 232.406 17.9842 231.725 15.5186 230.659C13.054 229.593 11.5077 228.166 10.8541 226.405C10.2004 224.644 10.4305 222.524 11.5807 220.047C12.7313 217.57 14.7805 214.788 17.6719 211.755C23.4528 205.692 32.5172 198.712 44.1956 191.258C67.5452 176.354 101.254 159.612 139.786 144.574C178.317 129.535 214.351 119.057 241.454 114.27C255.01 111.875 266.307 110.909 274.556 111.497C278.681 111.79 282.016 112.471 284.481 113.537C286.946 114.603 288.492 116.03 289.146 117.791Z" fill="#9392BA" stroke="#9392BA"/>
</svg>
